# xmcd
#
# Track frame offsets:
# 150
# 23785
# 33200
# 49455
# 59885
# 75155
# 84350
# 102845
# 112540
# 124855
# 136515
# 147215
# 160000
# 171070
# 181720
# 192020
#
# Disc length: 2828 seconds
#
# Revision: 1
# Processed by: cddbd v1.5.1PL0 Copyright (c) Steve Scherf et al.
# Submitted via: CedeCatalogueitor 2.6.0.6 http://personales.ya.com/cdcatalogueitor
#
DISCID=ba0b0a10
DTITLE=Varios - ... Y En Guadalajara
DYEAR=1998
DGENRE=
TTITLE0=Baile Corrido Y Paloteos De Galve De Sorbe
TTITLE1=Jota
TTITLE2=La Gaviota
TTITLE3=Diana
TTITLE4=Fox-trot
TTITLE5=Jota Del Tío Maroto
TTITLE6=Habanera
TTITLE7=Baile Corrido De Rueda
TTITLE8=Pasodoble
TTITLE9=Pollo-pollo De Milmarcos
TTITLE10=Pasacalle Del Cojo
TTITLE11=Bailano Y Milano
TTITLE12=Mazurca
TTITLE13=Pasacalles De Galve De Sorve
TTITLE14=Divertimento
TTITLE15=Schotis Villagloria
EXTD=
EXTT0=
EXTT1=
EXTT2=
EXTT3=
EXTT4=
EXTT5=
EXTT6=
EXTT7=
EXTT8=
EXTT9=
EXTT10=
EXTT11=
EXTT12=
EXTT13=
EXTT14=
EXTT15=
PLAYORDER=
